<svg width="105" height="113" viewBox="0 0 105 113" fill="none" xmlns="http://www.w3.org/2000/svg">
<path fill-rule="evenodd" clip-rule="evenodd" d="M95.1066 82.352L102.959 59.0479L103.779 56.6146C104.233 55.4206 103.97 54.1056 103.148 53.2214L100.178 50.0865L67.9426 16.1761L25.0567 24.6249L21.4464 25.58C20.1735 25.7197 19.0784 26.6352 18.6971 27.9251L17.8777 30.3591L10.189 53.1707L95.1066 82.352Z" fill="#98A300" stroke="#98A300" stroke-width="1.5" stroke-miterlimit="10" stroke-linecap="round" stroke-linejoin="round"/>
<path fill-rule="evenodd" clip-rule="evenodd" d="M37.2994 6.95993L16.0588 69.9843L80.4165 91.0538L98.5196 37.3354L89.1761 18.1601L42.9854 2.58516L42.1798 2.31425C40.4056 1.7516 38.6271 2.80605 38.1195 4.52595L37.2994 6.95993Z" fill="white"/>
<path d="M67.9441 40.8353C67.9441 40.8353 59.422 34.4204 53.6694 43.6104C53.6694 43.6104 50.0694 49.4161 56.0131 50.9137C56.0131 50.9137 60.1025 52.6843 64.8219 46.5605" stroke="#98A300" stroke-width="1.5" stroke-miterlimit="10" stroke-linecap="round" stroke-linejoin="round"/>
<path d="M50.6254 34.2314C46.5387 38.161 42.9721 45.301 45.3304 51.0651C46.7686 54.5785 49.7949 57.2125 53.2664 58.6268C56.5232 59.9549 60.353 60.4446 63.7717 59.4979" stroke="#98A300" stroke-width="1.5" stroke-miterlimit="10" stroke-linecap="round" stroke-linejoin="round"/>
<path d="M53.4985 32.0522C52.4791 32.6507 51.5126 33.3764 50.6245 34.231" stroke="#98A300" stroke-width="1.5" stroke-miterlimit="10" stroke-linecap="round" stroke-linejoin="round"/>
<path d="M67.94 40.8348C67.94 40.8348 62.8332 49.7996 63.1471 52.0558C63.1471 52.0558 63.7672 54.5308 66.7866 54.5738C67.5497 54.628 68.3338 54.4814 69.0539 54.2376C76.6134 51.6751 77.1183 39.8248 72.2274 34.6699C68.0206 30.2361 61.7874 28.9309 56.3611 30.7515" stroke="#98A300" stroke-width="1.5" stroke-miterlimit="10" stroke-linecap="round" stroke-linejoin="round"/>
<path d="M44.8333 3.20784L47.9047 1.45668C49.5707 0.506432 51.6914 1.08714 52.6407 2.75286C53.2109 3.75313 53.2303 4.91593 52.7942 5.89258" stroke="#98A300" stroke-width="1.5" stroke-miterlimit="10" stroke-linecap="round" stroke-linejoin="round"/>
<path d="M34.0032 12.8362L43.703 7.30416C44.6495 6.76444 45.855 7.09369 46.3946 8.04116C46.9342 8.98794 46.6043 10.1938 45.6578 10.7342L35.9483 16.2718C34.2823 17.2221 32.1615 16.6414 31.2116 14.9756C30.2623 13.3092 30.8421 11.1878 32.5088 10.2376L37.0726 7.63411" stroke="#98A300" stroke-width="1.5" stroke-miterlimit="10" stroke-linecap="round" stroke-linejoin="round"/>
<path d="M58.9263 111.622H100.245" stroke="#98A300" stroke-width="1.5" stroke-miterlimit="10" stroke-linecap="round" stroke-linejoin="round"/>
<path d="M45.165 111.622H54.5253" stroke="#98A300" stroke-width="1.5" stroke-miterlimit="10" stroke-linecap="round" stroke-linejoin="round"/>
<path d="M18.7747 111.622H23.4544" stroke="#98A300" stroke-width="1.5" stroke-miterlimit="10" stroke-linecap="round" stroke-linejoin="round"/>
<path fill-rule="evenodd" clip-rule="evenodd" d="M98.2887 37.2701L91.9409 24.6925L88.425 35.1244L88.1549 35.9295C87.5924 37.705 88.6466 39.4839 90.366 39.9917L92.7986 40.8128L96.8749 42.1874" fill="#F2F5CC"/>
<path fill-rule="evenodd" clip-rule="evenodd" d="M88.9541 18.0817L85.4382 28.5136L85.1674 29.3187C84.6049 31.0941 85.659 32.8724 87.3784 33.3809L89.8117 34.2019L98.5824 37.1596L88.9541 18.0817Z" fill="#F2F5CC" stroke="#98A300" stroke-width="1.5" stroke-miterlimit="10" stroke-linecap="round" stroke-linejoin="round"/>
<path d="M89.38 64.4689L98.5235 37.3353L89.1807 18.1601L42.9899 2.58516L42.1844 2.31425C40.4101 1.7516 38.6317 2.80605 38.1241 4.52595L37.304 6.95993" stroke="#98A300" stroke-width="1.5" stroke-miterlimit="10" stroke-linecap="round" stroke-linejoin="round"/>
<path d="M37.304 6.95801L25.2084 42.8474" stroke="#98A300" stroke-width="1.5" stroke-miterlimit="10" stroke-linecap="round" stroke-linejoin="round"/>
<path fill-rule="evenodd" clip-rule="evenodd" d="M6.47027 64.2228L17.1853 32.424L43.441 66.5727C43.441 66.5727 50.5881 74.3775 61.0539 71.8366L102.27 61.1129L87.1228 106.058L86.302 108.491C85.7943 110.212 84.0166 111.265 82.2416 110.703L81.4368 110.432L54.7734 101.479L30.5594 93.3131L3.91894 84.294L3.11409 84.0211C1.36066 83.3945 0.58359 81.4787 1.22038 79.8019L2.0405 77.3679L4.17865 71.0239" fill="white"/>
<path d="M6.47027 64.2228L17.1853 32.424L43.441 66.5727C43.441 66.5727 50.5881 74.3775 61.0539 71.8366L102.27 61.1129L87.1228 106.058L86.302 108.491C85.7943 110.212 84.0166 111.265 82.2416 110.703L81.4368 110.432L54.7734 101.479L30.5594 93.3131L3.91894 84.294L3.11409 84.0211C1.36066 83.3945 0.58359 81.4787 1.22038 79.8019L2.0405 77.3679L4.17865 71.0239" stroke="#98A300" stroke-width="1.5" stroke-miterlimit="10" stroke-linecap="round" stroke-linejoin="round"/>
<path d="M40.1858 62.3314L12.4594 76.6122" stroke="#98A300" stroke-width="1.5" stroke-miterlimit="10" stroke-linecap="round" stroke-linejoin="round"/>
<path d="M74.8755 90.7142L78.8237 98.9936" stroke="#98A300" stroke-width="1.5" stroke-miterlimit="10" stroke-linecap="round" stroke-linejoin="round"/>
<path d="M65.3997 70.8364L72.1586 85.014" stroke="#98A300" stroke-width="1.5" stroke-miterlimit="10" stroke-linecap="round" stroke-linejoin="round"/>
</svg>
