<svg width="24" height="24" viewBox="0 0 24 24" fill="none" xmlns="http://www.w3.org/2000/svg">
    <path d="M14.3794 16.4229C14.2079 16.5257 13.5908 16.6971 13.1451 16.6971C12.4937 16.6971 12.2537 16.2857 12.5279 15.3257L13.4879 11.8629C13.8994 10.4229 13.0765 9.39428 11.6022 9.39428C10.8822 9.39428 9.88795 9.63428 8.99652 10.08L8.85938 10.9029C9.23652 10.7657 9.64795 10.6629 9.95652 10.6629C10.6422 10.6629 10.9165 11.1771 10.6765 12.0343L9.7508 15.3257C9.30509 16.9714 10.0937 18 11.7051 18C12.4937 18 13.2822 17.76 14.1737 17.28L14.3794 16.4229ZM14.4822 7.16571C14.4822 6.27428 13.7965 5.55428 12.8708 5.55428C11.9451 5.55428 11.2251 6.27428 11.2251 7.16571C11.2251 8.09143 11.9451 8.81143 12.8708 8.81143C13.7965 8.81143 14.4822 8.09143 14.4822 7.16571Z" fill="black"/>
    <path d="M1.25366 12.0356C1.25366 17.9829 6.08236 22.7639 12.0186 22.7639C17.9912 22.7639 22.75 17.9604 22.75 11.9982C22.75 6.05289 17.9743 1.23249 12.0186 1.23249C6.03405 1.23249 1.25366 6.06269 1.25366 12.0356ZM2.9663 11.9982C2.9663 6.99437 7.01503 2.94691 12.0186 2.94691C17.0282 2.94691 21.0356 6.99907 21.0356 11.9983C21.0356 17.0142 17.0449 21.0495 12.0186 21.0495C6.99817 21.0495 2.9663 17.0189 2.9663 11.9982Z" fill="black"/>
</svg>
