<svg width="85" height="36" viewBox="0 0 85 36" fill="none" xmlns="http://www.w3.org/2000/svg">
    <path fill-rule="evenodd" clip-rule="evenodd" d="M12 0C5.37258 0 0 5.37258 0 12C0 18.6274 5.37258 24 12 24H34L43 36L52 24L73 24C79.6274 24 85 18.6274 85 12C85 5.37258 79.6274 0 73 0H12Z" fill="url(#paint0_linear_9054_211816)"/>
    <path d="M29.2168 16H27.8488L23.7328 9.772V16H22.3648V7.648H23.7328L27.8488 13.864V7.648H29.2168V16ZM30.5573 12.664C30.5573 12 30.6933 11.412 30.9653 10.9C31.2453 10.388 31.6213 9.992 32.0933 9.712C32.5733 9.424 33.1013 9.28 33.6773 9.28C34.1973 9.28 34.6493 9.384 35.0333 9.592C35.4253 9.792 35.7373 10.044 35.9693 10.348V9.388H37.3493V16H35.9693V15.016C35.7373 15.328 35.4213 15.588 35.0213 15.796C34.6213 16.004 34.1653 16.108 33.6533 16.108C33.0853 16.108 32.5653 15.964 32.0933 15.676C31.6213 15.38 31.2453 14.972 30.9653 14.452C30.6933 13.924 30.5573 13.328 30.5573 12.664ZM35.9693 12.688C35.9693 12.232 35.8733 11.836 35.6813 11.5C35.4973 11.164 35.2533 10.908 34.9493 10.732C34.6453 10.556 34.3173 10.468 33.9653 10.468C33.6133 10.468 33.2853 10.556 32.9813 10.732C32.6773 10.9 32.4293 11.152 32.2373 11.488C32.0533 11.816 31.9613 12.208 31.9613 12.664C31.9613 13.12 32.0533 13.52 32.2373 13.864C32.4293 14.208 32.6773 14.472 32.9813 14.656C33.2933 14.832 33.6213 14.92 33.9653 14.92C34.3173 14.92 34.6453 14.832 34.9493 14.656C35.2533 14.48 35.4973 14.224 35.6813 13.888C35.8733 13.544 35.9693 13.144 35.9693 12.688ZM35.4173 7.612L32.7653 8.92V7.912L35.4173 6.448V7.612ZM41.5461 16.108C41.0261 16.108 40.5581 16.016 40.1421 15.832C39.7341 15.64 39.4101 15.384 39.1701 15.064C38.9301 14.736 38.8021 14.372 38.7861 13.972H40.2021C40.2261 14.252 40.3581 14.488 40.5981 14.68C40.8461 14.864 41.1541 14.956 41.5221 14.956C41.9061 14.956 42.2021 14.884 42.4101 14.74C42.6261 14.588 42.7341 14.396 42.7341 14.164C42.7341 13.916 42.6141 13.732 42.3741 13.612C42.1421 13.492 41.7701 13.36 41.2581 13.216C40.7621 13.08 40.3581 12.948 40.0461 12.82C39.7341 12.692 39.4621 12.496 39.2301 12.232C39.0061 11.968 38.8941 11.62 38.8941 11.188C38.8941 10.836 38.9981 10.516 39.2061 10.228C39.4141 9.932 39.7101 9.7 40.0941 9.532C40.4861 9.364 40.9341 9.28 41.4381 9.28C42.1901 9.28 42.7941 9.472 43.2501 9.856C43.7141 10.232 43.9621 10.748 43.9941 11.404H42.6261C42.6021 11.108 42.4821 10.872 42.2661 10.696C42.0501 10.52 41.7581 10.432 41.3901 10.432C41.0301 10.432 40.7541 10.5 40.5621 10.636C40.3701 10.772 40.2741 10.952 40.2741 11.176C40.2741 11.352 40.3381 11.5 40.4661 11.62C40.5941 11.74 40.7501 11.836 40.9341 11.908C41.1181 11.972 41.3901 12.056 41.7501 12.16C42.2301 12.288 42.6221 12.42 42.9261 12.556C43.2381 12.684 43.5061 12.876 43.7301 13.132C43.9541 13.388 44.0701 13.728 44.0781 14.152C44.0781 14.528 43.9741 14.864 43.7661 15.16C43.5581 15.456 43.2621 15.688 42.8781 15.856C42.5021 16.024 42.0581 16.108 41.5461 16.108ZM43.1541 7.816L41.4381 8.812L39.7221 7.816V6.748L41.4381 7.78L43.1541 6.748V7.816ZM50.2694 10.504V14.164C50.2694 14.412 50.3254 14.592 50.4374 14.704C50.5574 14.808 50.7574 14.86 51.0374 14.86H51.8774V16H50.7974C50.1814 16 49.7094 15.856 49.3814 15.568C49.0534 15.28 48.8894 14.812 48.8894 14.164V10.504H48.1094V9.388H48.8894V7.744H50.2694V9.388H51.8774V10.504H50.2694ZM53.8343 8.512C53.5863 8.512 53.3783 8.428 53.2103 8.26C53.0423 8.092 52.9583 7.884 52.9583 7.636C52.9583 7.388 53.0423 7.18 53.2103 7.012C53.3783 6.844 53.5863 6.76 53.8343 6.76C54.0743 6.76 54.2783 6.844 54.4463 7.012C54.6143 7.18 54.6983 7.388 54.6983 7.636C54.6983 7.884 54.6143 8.092 54.4463 8.26C54.2783 8.428 54.0743 8.512 53.8343 8.512ZM54.5063 9.388V16H53.1383V9.388H54.5063ZM57.6703 10.36C57.9023 10.056 58.2183 9.8 58.6183 9.592C59.0183 9.384 59.4703 9.28 59.9743 9.28C60.5503 9.28 61.0743 9.424 61.5463 9.712C62.0263 9.992 62.4023 10.388 62.6743 10.9C62.9463 11.412 63.0823 12 63.0823 12.664C63.0823 13.328 62.9463 13.924 62.6743 14.452C62.4023 14.972 62.0263 15.38 61.5463 15.676C61.0743 15.964 60.5503 16.108 59.9743 16.108C59.4703 16.108 59.0223 16.008 58.6303 15.808C58.2383 15.6 57.9183 15.344 57.6703 15.04V19.144H56.3023V9.388H57.6703V10.36ZM61.6903 12.664C61.6903 12.208 61.5943 11.816 61.4023 11.488C61.2183 11.152 60.9703 10.9 60.6583 10.732C60.3543 10.556 60.0263 10.468 59.6743 10.468C59.3303 10.468 59.0023 10.556 58.6903 10.732C58.3863 10.908 58.1383 11.164 57.9463 11.5C57.7623 11.836 57.6703 12.232 57.6703 12.688C57.6703 13.144 57.7623 13.544 57.9463 13.888C58.1383 14.224 58.3863 14.48 58.6903 14.656C59.0023 14.832 59.3303 14.92 59.6743 14.92C60.0263 14.92 60.3543 14.832 60.6583 14.656C60.9703 14.472 61.2183 14.208 61.4023 13.864C61.5943 13.52 61.6903 13.12 61.6903 12.664Z" fill="white"/>
    <defs>
        <linearGradient id="paint0_linear_9054_211816" x1="3.5" y1="42.0005" x2="85.0006" y2="-9.9992" gradientUnits="userSpaceOnUse">
            <stop stop-color="#5A53E1"/>
            <stop offset="0.701273" stop-color="#CC7EFF"/>
            <stop offset="1" stop-color="#C098F2"/>
        </linearGradient>
    </defs>
</svg>
