<svg width="16" height="16" viewBox="0 0 16 16" fill="none" xmlns="http://www.w3.org/2000/svg">
<path fill-rule="evenodd" clip-rule="evenodd" d="M8.00065 2.33331C7.17222 2.33331 6.50065 3.00489 6.50065 3.83331V5.33331H9.50065V3.83331C9.50065 3.00489 8.82908 2.33331 8.00065 2.33331ZM5.50065 3.83331V5.33331H1.86927C1.51973 5.33331 1.26407 5.662 1.35112 5.99947L3.22523 13.2649C3.43805 14.0899 4.1842 14.6666 5.03877 14.6666H10.9625C11.8171 14.6666 12.5632 14.0899 12.7761 13.2649L14.6502 5.99947C14.7372 5.662 14.4816 5.33331 14.132 5.33331H10.5007V3.83331C10.5007 2.4526 9.38136 1.33331 8.00065 1.33331C6.61994 1.33331 5.50065 2.4526 5.50065 3.83331ZM6.50049 7.33339C6.50049 7.05725 6.27663 6.83339 6.00049 6.83339C5.72435 6.83339 5.50049 7.05725 5.50049 7.33339V12.6667C5.50049 12.9429 5.72435 13.1667 6.00049 13.1667C6.27663 13.1667 6.50049 12.9429 6.50049 12.6667V7.33339ZM10.5005 7.33339C10.5005 7.05725 10.2766 6.83339 10.0005 6.83339C9.72435 6.83339 9.50049 7.05725 9.50049 7.33339V12.6667C9.50049 12.9429 9.72435 13.1667 10.0005 13.1667C10.2766 13.1667 10.5005 12.9429 10.5005 12.6667V7.33339Z" fill="#6F5BE7"/>
</svg>
