<svg xmlns="http://www.w3.org/2000/svg" fill-rule="evenodd" viewBox="0 0 16 16">
  <path
    d="M1.334 8.01c0-3.512 2.8066-6.6767 6.68-6.6767 3.7867 0 6.6533 3.1047 6.6533 6.6567 0 4.1195-3.36 6.6767-6.6666 6.6767-1.0934 0-2.3067-.2938-3.28-.868-.34-.207-.6267-.3605-.9934-.2404l-1.3466.4006c-.34.1069-.6467-.1602-.5467-.5207l.4466-1.4956c.0734-.207.06-.4273-.0466-.6009-.5734-1.0549-.9-2.21-.9-3.3317Zm5.8 0c0 .474.38.8546.8533.8613.4733 0 .8533-.3872.8533-.8546 0-.474-.38-.8546-.8533-.8546-.4667-.0067-.8534.3805-.8534.848Zm3.0731.0067c0 .4673.38.8546.8534.8546.4733 0 .8533-.3872.8533-.8546 0-.474-.38-.8546-.8533-.8546a.8514.8514 0 0 0-.8534.8546Zm-5.293.8546c-.4667 0-.8534-.3872-.8534-.8546 0-.474.38-.8546.8533-.8546a.8514.8514 0 0 1 .8534.8546c0 .4673-.38.848-.8534.8546Z" />
</svg>