<svg width="16" height="16" viewBox="0 0 16 16" fill="none" xmlns="http://www.w3.org/2000/svg">
    <path d="M4.71996 7.99982C4.5323 7.83105 4.28778 7.73949 4.03543 7.74349C3.78308 7.74748 3.54158 7.84675 3.35936 8.02137C3.17715 8.19599 3.0677 8.43306 3.05297 8.68501C3.03825 8.93695 3.11933 9.18515 3.27996 9.37982L5.49996 11.7098C5.5929 11.8073 5.70459 11.885 5.82832 11.9383C5.95204 11.9916 6.08525 12.0193 6.21996 12.0198C6.35395 12.0206 6.48673 11.9944 6.61041 11.9429C6.7341 11.8914 6.84616 11.8155 6.93996 11.7198L13.72 4.71982C13.8119 4.62526 13.8843 4.51353 13.933 4.391C13.9818 4.26847 14.0059 4.13753 14.004 4.00567C14.0022 3.87382 13.9744 3.74361 13.9222 3.6225C13.87 3.50139 13.7945 3.39174 13.7 3.29982C13.6054 3.20789 13.4937 3.13549 13.3711 3.08674C13.2486 3.038 13.1177 3.01387 12.9858 3.01572C12.854 3.01758 12.7238 3.04539 12.6026 3.09757C12.4815 3.14974 12.3719 3.22526 12.28 3.31982L6.22996 9.57982L4.71996 7.99982Z" fill="black"/>
</svg>
