<svg width="24" height="24" viewBox="0 0 24 24" fill="none" xmlns="http://www.w3.org/2000/svg">
<path fill-rule="evenodd" clip-rule="evenodd" d="M12 3.5C10.7574 3.5 9.75 4.50736 9.75 5.75V8H14.25V5.75C14.25 4.50736 13.2426 3.5 12 3.5ZM8.25 5.75V8H2.80293C2.27861 8 1.89512 8.49302 2.0257 8.99923L4.83687 19.8973C5.1561 21.1349 6.27533 22 7.55717 22H16.4428C17.7247 22 18.8439 21.1349 19.1631 19.8973L21.9743 8.99923C22.1049 8.49303 21.7214 8 21.1971 8H15.75V5.75C15.75 3.67893 14.0711 2 12 2C9.92893 2 8.25 3.67893 8.25 5.75ZM9.75 11C9.75 10.5858 9.41421 10.25 9 10.25C8.58579 10.25 8.25 10.5858 8.25 11V19C8.25 19.4142 8.58579 19.75 9 19.75C9.41421 19.75 9.75 19.4142 9.75 19V11ZM15.75 11C15.75 10.5858 15.4142 10.25 15 10.25C14.5858 10.25 14.25 10.5858 14.25 11V19C14.25 19.4142 14.5858 19.75 15 19.75C15.4142 19.75 15.75 19.4142 15.75 19V11Z" fill="#6F5BE7"/>
</svg>
