<svg width="24" height="24" viewBox="0 0 24 24" fill="none" xmlns="http://www.w3.org/2000/svg">
    <path fill-rule="evenodd" clip-rule="evenodd" d="M12.1541 16.6401L14.9957 13.7701C15.2829 13.4701 15.2829 13.0001 14.9858 12.7101C14.6987 12.4201 14.2333 12.4201 13.9462 12.7101L12.372 14.3101V9.49011C12.372 9.07011 12.0452 8.74011 11.6393 8.74011C11.2333 8.74011 10.8967 9.07011 10.8967 9.49011V14.3101L9.32246 12.7101C9.03533 12.4201 8.56998 12.4201 8.28285 12.7101C7.99572 13.0001 7.99572 13.4701 8.28285 13.7701L11.1145 16.6401C11.1838 16.7101 11.263 16.7601 11.3522 16.8001C11.4413 16.8401 11.5403 16.8601 11.6393 16.8601C11.7383 16.8601 11.8274 16.8401 11.9165 16.8001C12.0056 16.7601 12.0848 16.7101 12.1541 16.6401ZM19.3282 9.02561C19.5609 9.02292 19.8143 9.02 20.0446 9.02C20.302 9.02 20.5 9.22 20.5 9.47V17.51C20.5 19.99 18.5 22 16.0446 22H8.17327C5.58911 22 3.5 19.89 3.5 17.29V6.51C3.5 4.03 5.4901 2 7.96535 2H13.2525C13.5 2 13.7079 2.21 13.7079 2.46V5.68C13.7079 7.51 15.1931 9.01 17.0149 9.02C17.4333 9.02 17.8077 9.02318 18.1346 9.02595C18.3878 9.02809 18.6125 9.03 18.8069 9.03C18.9479 9.03 19.1306 9.02789 19.3282 9.02561ZM19.6054 7.56613C18.7925 7.56913 17.8331 7.56613 17.143 7.55913C16.048 7.55913 15.146 6.64813 15.146 5.54213V2.90613C15.146 2.47513 15.6638 2.26113 15.9589 2.57213C16.7214 3.37215 17.8886 4.59821 18.8752 5.63446C19.2747 6.05411 19.6446 6.44264 19.946 6.75913C20.2351 7.06213 20.0232 7.56513 19.6054 7.56613Z" fill="#835AA1"/>
</svg>
