<svg width="24" height="24" viewBox="0 0 24 24" fill="none" xmlns="http://www.w3.org/2000/svg">
    <path d="M12.0062 14.0315L7.94964 18.0747C7.92886 18.0964 7.90737 18.1179 7.88515 18.139C7.26801 18.7561 6.30801 18.7561 5.65658 18.1047C5.00515 17.4876 5.00515 16.5276 5.65658 15.8761L9.75372 11.779L5.65658 7.68186L5.64897 7.67421C5.00515 7.02295 5.00769 6.06803 5.65658 5.45328C6.30801 4.80186 7.26801 4.80186 7.88515 5.419C7.90737 5.44012 7.92886 5.46155 7.94964 5.48325L12.0062 9.5265L16.0451 5.48757C16.7309 4.80186 17.6566 4.83614 18.308 5.45328C18.9594 6.10471 18.9937 7.06471 18.308 7.75043L14.2661 11.779L18.308 15.8076C18.9937 16.4933 18.9594 17.4533 18.308 18.1047C17.6566 18.7219 16.7309 18.7561 16.0451 18.0704L12.0062 14.0315Z" fill="black"/>
</svg>
