<svg width="24" height="24" viewBox="0 0 24 24" fill="none" xmlns="http://www.w3.org/2000/svg">
    <path fill-rule="evenodd" clip-rule="evenodd" d="M9.37562 20.0287L18.163 8.66505C18.6405 8.05224 18.8103 7.34376 18.6511 6.62238C18.5132 5.96657 18.1099 5.34302 17.505 4.86998L16.0298 3.69813C14.7457 2.6768 13.1538 2.78431 12.2411 3.95615L11.2541 5.23659C11.1267 5.39677 11.1586 5.63329 11.3178 5.7623C11.3178 5.7623 13.8117 7.76197 13.8648 7.80497C14.0346 7.96624 14.162 8.18125 14.1938 8.43928C14.2469 8.94457 13.8966 9.41761 13.3766 9.48211C13.1325 9.51437 12.8991 9.43911 12.7292 9.29935L10.1079 7.21367C9.98055 7.11799 9.78952 7.13842 9.68339 7.26743L3.45372 15.3306C3.05044 15.8359 2.91247 16.4917 3.05044 17.126L3.84639 20.577C3.88884 20.7598 4.04804 20.8888 4.23906 20.8888L7.74126 20.8458C8.37803 20.8351 8.97234 20.5448 9.37562 20.0287ZM14.2781 18.954H19.9888C20.546 18.954 20.9991 19.4131 20.9991 19.9775C20.9991 20.543 20.546 21.001 19.9888 21.001H14.2781C13.7209 21.001 13.2678 20.543 13.2678 19.9775C13.2678 19.4131 13.7209 18.954 14.2781 18.954Z" fill="#98A300"/>
</svg>
