<svg width="24" height="24" viewBox="0 0 24 24" fill="none" xmlns="http://www.w3.org/2000/svg">
<path d="M10.4194 10.2522V5.41793L10.4194 5.40751C10.4247 4.52116 11.1086 3.84079 11.9965 3.84079C12.9223 3.84079 13.608 4.5265 13.608 5.41793V10.2522H18.408L18.4192 10.2523C19.373 10.2576 20.0194 10.9415 20.0194 11.8636C20.0194 12.7551 19.368 13.4408 18.408 13.4408H13.608V18.2408C13.608 19.2008 12.9223 19.8522 11.9965 19.8522C11.1051 19.8522 10.4194 19.2008 10.4194 18.2408V13.4408H5.58511L5.57468 13.4408C4.68833 13.4354 4.00797 12.7516 4.00797 11.8636C4.00797 10.9379 4.69368 10.2522 5.58511 10.2522H10.4194Z" fill="black"/>
</svg>
